<?xml version="1.0" encoding="utf-8"?>
<!-- Generator: Adobe Illustrator 19.1.0, SVG Export Plug-In . SVG Version: 6.00 Build 0)  -->
<svg version="1.1" id="Ebene_1" xmlns="http://www.w3.org/2000/svg" xmlns:xlink="http://www.w3.org/1999/xlink" x="0px" y="0px"
	 viewBox="0 0 32 32" style="enable-background:new 0 0 32 32;" xml:space="preserve">
<style type="text/css">
	.st0{fill:#2E3231;}
	.st1{fill:url(#SVGID_1_);}
	.st2{fill:url(#SVGID_2_);}
	.st3{fill:url(#SVGID_3_);}
	.st4{fill:url(#SVGID_4_);}
	.st5{fill:url(#SVGID_5_);}
	.st6{fill-rule:evenodd;clip-rule:evenodd;fill:url(#SVGID_6_);}
	.st7{fill-rule:evenodd;clip-rule:evenodd;fill:url(#SVGID_7_);}
	.st8{fill-rule:evenodd;clip-rule:evenodd;fill:url(#SVGID_8_);}
	.st9{fill-rule:evenodd;clip-rule:evenodd;fill:url(#SVGID_9_);}
	.st10{fill:url(#SVGID_10_);}
	.st11{fill-rule:evenodd;clip-rule:evenodd;fill:url(#SVGID_11_);}
	.st12{fill-rule:evenodd;clip-rule:evenodd;fill:url(#SVGID_12_);}
	.st13{fill:url(#SVGID_13_);}
	.st14{fill:url(#SVGID_14_);}
	.st15{fill:url(#SVGID_15_);}
	.st16{fill-rule:evenodd;clip-rule:evenodd;fill:url(#SVGID_16_);}
	.st17{fill-rule:evenodd;clip-rule:evenodd;fill:url(#SVGID_17_);}
	.st18{fill-rule:evenodd;clip-rule:evenodd;fill:url(#SVGID_18_);}
	.st19{fill:url(#SVGID_19_);}
	.st20{fill-rule:evenodd;clip-rule:evenodd;fill:url(#SVGID_20_);}
	.st21{fill-rule:evenodd;clip-rule:evenodd;fill:url(#SVGID_21_);}
	.st22{fill-rule:evenodd;clip-rule:evenodd;fill:#2E3231;}
	.st23{fill:url(#SVGID_22_);}
	.st24{fill-rule:evenodd;clip-rule:evenodd;fill:url(#SVGID_23_);}
	.st25{fill:url(#SVGID_24_);}
</style>
<linearGradient id="SVGID_1_" gradientUnits="userSpaceOnUse" x1="7" y1="15.9995" x2="25" y2="15.9995">
	<stop  offset="0" style="stop-color:#05F5FF"/>
	<stop  offset="1" style="stop-color:#6EFF91"/>
</linearGradient>
<path style="fill-rule:evenodd;clip-rule:evenodd;fill:url(#SVGID_1_);" d="M20.8,26h-4.2v4h6.4c0.6,0,1.1,0.4,1.1,1
	c0,0.6-0.5,1-1.1,1H8.1C7.5,32,7,31.6,7,31c0-0.6,0.5-1,1.1-1h6.4v-4h-3.2C8.9,26,7,24.2,7,22V4c0-2.2,1.9-4,4.2-4h9.5
	C23.1,0,25,1.8,25,4v18C25,24.2,23.1,26,20.8,26z M22.9,20h-3.2c-0.6,0-1.1-0.4-1.1-1c0-0.6,0.5-1,1.1-1h3.2v-4h-3.2
	c-0.6,0-1.1-0.4-1.1-1c0-0.6,0.5-1,1.1-1h3.2V8h-3.2c-0.6,0-1.1-0.4-1.1-1c0-0.6,0.5-1,1.1-1h3.2V4c0-1.1-0.9-2-2.1-2h-9.5
	c-1.2,0-2.1,0.9-2.1,2v2h3.2c0.6,0,1.1,0.4,1.1,1c0,0.6-0.5,1-1.1,1H9.1v4h3.2c0.6,0,1.1,0.4,1.1,1c0,0.6-0.5,1-1.1,1H9.1v4h3.2
	c0.6,0,1.1,0.4,1.1,1c0,0.6-0.5,1-1.1,1H9.1v2c0,1.1,0.9,2,2.1,2h9.5c1.2,0,2.1-0.9,2.1-2V20z"/>
</svg>
