<?xml version="1.0" encoding="utf-8"?>
<!-- Generator: Adobe Illustrator 19.1.0, SVG Export Plug-In . SVG Version: 6.00 Build 0)  -->
<svg version="1.1" id="Ebene_1" xmlns="http://www.w3.org/2000/svg" xmlns:xlink="http://www.w3.org/1999/xlink" x="0px" y="0px"
	 viewBox="0 0 32 32" style="enable-background:new 0 0 32 32;" xml:space="preserve">
<style type="text/css">
	.st0{fill:#2E3231;}
	.st1{fill-rule:evenodd;clip-rule:evenodd;fill:#2E3231;}
</style>
<path class="st0" d="M24,6.5c-2.1,0-5.6-2.4-6.6-3.4L16,1.7l-1.4,1.4c-1,1-4.5,3.4-6.6,3.4c-1.2,0-2.2-0.3-3-0.8v11.9
	C5,25.5,9.7,30,16,30s11-4.5,11-12.4V5.7C26.2,6.2,25.2,6.5,24,6.5z M25,17.7c0,7.2-3.9,10.4-9,10.4c-5.1,0-9-3.1-9-10.4
	c0-0.5,0-4.7,0-9.2c0.3,0,0.7,0.1,1,0.1c3,0,7-3,8-4c1,1,5,4,8,4c0.4,0,0.7,0,1-0.1C25,13,25,17.2,25,17.7z M20.3,13.3L15,18.6
	l-1.3-1.3c-0.4-0.4-1-0.4-1.4,0s-0.4,1,0,1.4l2,2c0.2,0.2,0.4,0.3,0.7,0.3h0c0.3,0,0.5-0.1,0.7-0.3l6-6c0.4-0.4,0.4-1,0-1.4
	C21.3,12.9,20.7,12.9,20.3,13.3z"/>
</svg>
