<?xml version="1.0" encoding="utf-8"?>
<!-- Generator: Adobe Illustrator 19.1.0, SVG Export Plug-In . SVG Version: 6.00 Build 0)  -->
<svg version="1.1" id="Ebene_1" xmlns="http://www.w3.org/2000/svg" xmlns:xlink="http://www.w3.org/1999/xlink" x="0px" y="0px"
	 viewBox="0 0 32 32" style="enable-background:new 0 0 32 32;" xml:space="preserve">
<style type="text/css">
	.st0{fill:#2E3231;}
	.st1{fill-rule:evenodd;clip-rule:evenodd;fill:#2E3231;}
</style>
<path class="st1" d="M29,32H3c-1.1,0-2-0.9-2-2V10V8V4c0-1.1,0.9-2,2-2h6V0h2v2h10V0h2v2h7c1.1,0,1,0.9,1,2v4v2v20
	C31,31.1,30.1,32,29,32z M29,5c0-0.6-0.4-1-1-1h-5v2h-2V4H11v2H9V4H4C3.4,4,3,4.4,3,5v3h26V5z M29,10H3v19c0,0.6,0.4,1,1,1h24
	c0.6,0,1-0.4,1-1V10z M21,22h6v6h-6V22z M23,26h2v-2h-2V26z M21,14h6v6h-6V14z M23,18h2v-2h-2V18z M13,22h6v6h-6V22z M15,26h2v-2h-2
	V26z M13,14h6v6h-6V14z M15,18h2v-2h-2V18z M5,22h6v6H5V22z M7,26h2v-2H7V26z M5,14h6v6H5V14z M7,18h2v-2H7V18z"/>
</svg>
