<?xml version="1.0" encoding="utf-8"?>
<!-- Generator: Adobe Illustrator 19.1.0, SVG Export Plug-In . SVG Version: 6.00 Build 0)  -->
<svg version="1.1" id="Ebene_1" xmlns="http://www.w3.org/2000/svg" xmlns:xlink="http://www.w3.org/1999/xlink" x="0px" y="0px"
	 viewBox="0 0 32 32" style="enable-background:new 0 0 32 32;" xml:space="preserve">
<style type="text/css">
	.st0{fill:#2E3231;}
	.st1{fill-rule:evenodd;clip-rule:evenodd;fill:#2E3231;}
</style>
<path class="st0" d="M10,2.2c-0.6,0-1,0.5-1,1v26.2c0,0.6,0.4,1,1,1s1-0.5,1-1V3.2C11,2.7,10.6,2.2,10,2.2z M4,9.3c-0.6,0-1,0.5-1,1
	v11.1c0,0.6,0.4,1,1,1c0.6,0,1-0.5,1-1V10.3C5,9.7,4.6,9.3,4,9.3z M28,9.3c-0.6,0-1,0.5-1,1v11.1c0,0.6,0.4,1,1,1c0.6,0,1-0.5,1-1
	V10.3C29,9.7,28.6,9.3,28,9.3z"/>
<path class="st0" d="M16,6.3c-0.6,0-1,0.5-1,1v18.2c0,0.6,0.4,1,1,1c0.6,0,1-0.5,1-1V7.3C17,6.7,16.6,6.3,16,6.3z"/>
<path class="st0" d="M22,2.2c-0.6,0-1,0.5-1,1v26.2c0,0.6,0.4,1,1,1c0.6,0,1-0.5,1-1V3.2C23,2.7,22.6,2.2,22,2.2z"/>
</svg>
