<?xml version="1.0" encoding="utf-8"?>
<!-- Generator: Adobe Illustrator 19.2.0, SVG Export Plug-In . SVG Version: 6.00 Build 0)  -->
<svg version="1.1" id="Ebene_1" xmlns="http://www.w3.org/2000/svg" xmlns:xlink="http://www.w3.org/1999/xlink" x="0px" y="0px"
	 viewBox="0 0 32 32" style="enable-background:new 0 0 32 32;" xml:space="preserve">
<style type="text/css">
	.st0{fill:url(#SVGID_1_);}
	.st1{fill:url(#SVGID_2_);}
</style>
<g>
	<linearGradient id="SVGID_1_" gradientUnits="userSpaceOnUse" x1="4.035" y1="16" x2="27.965" y2="16">
		<stop  offset="0" style="stop-color:#05F5FF"/>
		<stop  offset="1" style="stop-color:#00FF3C"/>
	</linearGradient>
	<path class="st0" d="M27.4,6.7l-6.1-6.1L20.7,0h-0.8H7C5.3,0,4,1.3,4,2.9v26.2C4,30.7,5.3,32,7,32H25c1.6,0,2.9-1.3,2.9-2.9V8V7.2
		L27.4,6.7z M26,29.1c0,0.6-0.5,1-1,1H7c-0.6,0-1-0.5-1-1V2.9c0-0.6,0.5-1,1-1h13L26,8V29.1z"/>
	<linearGradient id="SVGID_2_" gradientUnits="userSpaceOnUse" x1="8.7795" y1="19.2952" x2="23.2205" y2="19.2952">
		<stop  offset="0" style="stop-color:#05F5FF"/>
		<stop  offset="1" style="stop-color:#00FF3C"/>
	</linearGradient>
	<path class="st1" d="M12.7,11.4c-2.2,0-3.9,1.8-3.9,3.9v8c0,2.2,1.8,3.9,3.9,3.9h6.6c2.2,0,3.9-1.8,3.9-3.9v-8
		c0-2.2-1.8-3.9-3.9-3.9H12.7z M14.8,13.3h2.3v2.9h-2.3V13.3z M10.7,15.3c0-1.1,0.9-2,2-2h0.2v2.9h-2.2V15.3z M12.9,25.3h-0.2
		c-1.1,0-2-0.9-2-2v-0.8h2.2V25.3z M17.2,25.3h-2.3v-2.8h2.3V25.3z M21.3,23.3c0,1.1-0.9,2-2,2h-0.2v-2.8h2.2V23.3z M21.3,20.6H10.7
		v-2.5h10.6V20.6z M21.3,15.3v0.9h-2.2v-2.9h0.2C20.4,13.3,21.3,14.2,21.3,15.3z"/>
</g>
</svg>
