<?xml version="1.0" encoding="utf-8"?>
<!-- Generator: Adobe Illustrator 19.1.0, SVG Export Plug-In . SVG Version: 6.00 Build 0)  -->
<svg version="1.1" id="Ebene_1" xmlns="http://www.w3.org/2000/svg" xmlns:xlink="http://www.w3.org/1999/xlink" x="0px" y="0px"
	 viewBox="0 0 32 32" style="enable-background:new 0 0 32 32;" xml:space="preserve">
<style type="text/css">
	.st0{fill:#2E3231;}
	.st1{fill:url(#SVGID_1_);}
	.st2{fill:url(#SVGID_2_);}
	.st3{fill:url(#SVGID_3_);}
	.st4{fill:url(#SVGID_4_);}
	.st5{fill:url(#SVGID_5_);}
	.st6{fill-rule:evenodd;clip-rule:evenodd;fill:url(#SVGID_6_);}
	.st7{fill-rule:evenodd;clip-rule:evenodd;fill:url(#SVGID_7_);}
	.st8{fill-rule:evenodd;clip-rule:evenodd;fill:url(#SVGID_8_);}
	.st9{fill-rule:evenodd;clip-rule:evenodd;fill:url(#SVGID_9_);}
	.st10{fill:url(#SVGID_10_);}
	.st11{fill-rule:evenodd;clip-rule:evenodd;fill:url(#SVGID_11_);}
	.st12{fill-rule:evenodd;clip-rule:evenodd;fill:url(#SVGID_12_);}
	.st13{fill:url(#SVGID_13_);}
	.st14{fill:url(#SVGID_14_);}
	.st15{fill:url(#SVGID_15_);}
	.st16{fill-rule:evenodd;clip-rule:evenodd;fill:url(#SVGID_16_);}
	.st17{fill-rule:evenodd;clip-rule:evenodd;fill:url(#SVGID_17_);}
	.st18{fill-rule:evenodd;clip-rule:evenodd;fill:url(#SVGID_18_);}
	.st19{fill:url(#SVGID_19_);}
	.st20{fill-rule:evenodd;clip-rule:evenodd;fill:url(#SVGID_20_);}
	.st21{fill-rule:evenodd;clip-rule:evenodd;fill:url(#SVGID_21_);}
	.st22{fill-rule:evenodd;clip-rule:evenodd;fill:#2E3231;}
	.st23{fill:url(#SVGID_22_);}
	.st24{fill-rule:evenodd;clip-rule:evenodd;fill:url(#SVGID_23_);}
	.st25{fill:url(#SVGID_24_);}
</style>
<linearGradient id="SVGID_1_" gradientUnits="userSpaceOnUse" x1="6.103516e-05" y1="16.5" x2="31.9999" y2="16.5">
	<stop  offset="0" style="stop-color:#05F5FF"/>
	<stop  offset="1" style="stop-color:#6EFF91"/>
</linearGradient>
<path class="st1" d="M8.2,8.7C3.9,13,3.9,20,8.2,24.3l1.4-1.4c-1.7-1.7-2.6-4-2.6-6.4s0.9-4.7,2.6-6.4L8.2,8.7z M27.3,5.2l-1.4,1.4
	c5.5,5.5,5.5,14.3,0,19.8l1.4,1.4C33.6,21.6,33.6,11.4,27.3,5.2z M6.1,6.6L4.7,5.2c-6.2,6.2-6.2,16.4,0,22.6l1.4-1.4
	C0.6,20.9,0.6,12.1,6.1,6.6z M23.8,8.7l-1.4,1.4c1.7,1.7,2.6,4,2.6,6.4s-0.9,4.7-2.6,6.4l1.4,1.4C28.1,20,28.1,13,23.8,8.7z M16,11
	c-3,0-5.5,2.5-5.5,5.5S13,22,16,22s5.5-2.5,5.5-5.5S19,11,16,11z M16,20c-1.9,0-3.5-1.6-3.5-3.5S14.1,13,16,13s3.5,1.6,3.5,3.5
	S17.9,20,16,20z"/>
</svg>
