<?xml version="1.0" encoding="utf-8"?>
<!-- Generator: Adobe Illustrator 19.1.0, SVG Export Plug-In . SVG Version: 6.00 Build 0)  -->
<svg version="1.1" id="Ebene_1" xmlns="http://www.w3.org/2000/svg" xmlns:xlink="http://www.w3.org/1999/xlink" x="0px" y="0px"
	 viewBox="0 0 32 32" style="enable-background:new 0 0 32 32;" xml:space="preserve">
<style type="text/css">
	.st0{fill:#2E3231;}
	.st1{fill:url(#SVGID_1_);}
	.st2{fill:url(#SVGID_2_);}
	.st3{fill:url(#SVGID_3_);}
	.st4{fill:url(#SVGID_4_);}
	.st5{fill:url(#SVGID_5_);}
	.st6{fill-rule:evenodd;clip-rule:evenodd;fill:url(#SVGID_6_);}
	.st7{fill-rule:evenodd;clip-rule:evenodd;fill:url(#SVGID_7_);}
	.st8{fill-rule:evenodd;clip-rule:evenodd;fill:url(#SVGID_8_);}
	.st9{fill-rule:evenodd;clip-rule:evenodd;fill:url(#SVGID_9_);}
	.st10{fill:url(#SVGID_10_);}
	.st11{fill-rule:evenodd;clip-rule:evenodd;fill:url(#SVGID_11_);}
	.st12{fill-rule:evenodd;clip-rule:evenodd;fill:url(#SVGID_12_);}
	.st13{fill:url(#SVGID_13_);}
	.st14{fill:url(#SVGID_14_);}
	.st15{fill:url(#SVGID_15_);}
	.st16{fill-rule:evenodd;clip-rule:evenodd;fill:url(#SVGID_16_);}
	.st17{fill-rule:evenodd;clip-rule:evenodd;fill:url(#SVGID_17_);}
	.st18{fill-rule:evenodd;clip-rule:evenodd;fill:url(#SVGID_18_);}
	.st19{fill:url(#SVGID_19_);}
	.st20{fill-rule:evenodd;clip-rule:evenodd;fill:url(#SVGID_20_);}
	.st21{fill-rule:evenodd;clip-rule:evenodd;fill:url(#SVGID_21_);}
	.st22{fill-rule:evenodd;clip-rule:evenodd;fill:#2E3231;}
	.st23{fill:url(#SVGID_22_);}
	.st24{fill-rule:evenodd;clip-rule:evenodd;fill:url(#SVGID_23_);}
	.st25{fill:url(#SVGID_24_);}
</style>
<linearGradient id="SVGID_1_" gradientUnits="userSpaceOnUse" x1="6.1458" y1="16" x2="26.1458" y2="16">
	<stop  offset="0" style="stop-color:#05F5FF"/>
	<stop  offset="1" style="stop-color:#6EFF91"/>
</linearGradient>
<path class="st1" d="M21.1,22h-10c-0.6,0-1,0.4-1,1s0.4,1,1,1h10c0.6,0,1-0.4,1-1S21.7,22,21.1,22z M19.1,30h-6c-0.6,0-1,0.4-1,1
	s0.4,1,1,1h6c0.6,0,1-0.4,1-1S19.7,30,19.1,30z M20.1,26h-8c-0.6,0-1,0.4-1,1s0.4,1,1,1h8c0.6,0,1-0.4,1-1S20.7,26,20.1,26z M16.1,0
	c-5.5,0-10,5.4-10,12c0,2.3,1.2,5.2,2.8,8h2.2c-1.6-2.7-3-5.7-3-8c0-5.5,3.6-10,8-10c4.4,0,8,4.5,8,10c0,2.3-1.4,5.3-3,8h2.2
	c1.6-2.8,2.8-5.7,2.8-8C26.1,5.4,21.7,0,16.1,0z M22.1,10c0-3.3-2.7-6-6-6c-1.2,0-2.4,0.4-3.3,1c0.1,0,0.2,0,0.3,0c4.4,0,8,3.6,8,8
	c0,0.1,0,0.2,0,0.3C21.8,12.4,22.1,11.2,22.1,10z"/>
</svg>
