<?xml version="1.0" encoding="utf-8"?>
<!-- Generator: Adobe Illustrator 19.1.0, SVG Export Plug-In . SVG Version: 6.00 Build 0)  -->
<svg version="1.1" id="Ebene_1" xmlns="http://www.w3.org/2000/svg" xmlns:xlink="http://www.w3.org/1999/xlink" x="0px" y="0px"
	 viewBox="0 0 32 32" style="enable-background:new 0 0 32 32;" xml:space="preserve">
<style type="text/css">
	.st0{fill:#2E3231;}
	.st1{fill:url(#SVGID_1_);}
	.st2{fill:url(#SVGID_2_);}
	.st3{fill:url(#SVGID_3_);}
	.st4{fill:url(#SVGID_4_);}
	.st5{fill:url(#SVGID_5_);}
	.st6{fill-rule:evenodd;clip-rule:evenodd;fill:url(#SVGID_6_);}
	.st7{fill-rule:evenodd;clip-rule:evenodd;fill:url(#SVGID_7_);}
	.st8{fill-rule:evenodd;clip-rule:evenodd;fill:url(#SVGID_8_);}
	.st9{fill-rule:evenodd;clip-rule:evenodd;fill:url(#SVGID_9_);}
	.st10{fill:url(#SVGID_10_);}
	.st11{fill-rule:evenodd;clip-rule:evenodd;fill:url(#SVGID_11_);}
	.st12{fill-rule:evenodd;clip-rule:evenodd;fill:url(#SVGID_12_);}
	.st13{fill:url(#SVGID_13_);}
	.st14{fill:url(#SVGID_14_);}
	.st15{fill:url(#SVGID_15_);}
	.st16{fill-rule:evenodd;clip-rule:evenodd;fill:url(#SVGID_16_);}
	.st17{fill-rule:evenodd;clip-rule:evenodd;fill:url(#SVGID_17_);}
	.st18{fill-rule:evenodd;clip-rule:evenodd;fill:url(#SVGID_18_);}
	.st19{fill:url(#SVGID_19_);}
	.st20{fill-rule:evenodd;clip-rule:evenodd;fill:url(#SVGID_20_);}
	.st21{fill-rule:evenodd;clip-rule:evenodd;fill:url(#SVGID_21_);}
	.st22{fill-rule:evenodd;clip-rule:evenodd;fill:#2E3231;}
	.st23{fill:url(#SVGID_22_);}
	.st24{fill-rule:evenodd;clip-rule:evenodd;fill:url(#SVGID_23_);}
	.st25{fill:url(#SVGID_24_);}
</style>
<linearGradient id="SVGID_1_" gradientUnits="userSpaceOnUse" x1="1" y1="15.9998" x2="30.9385" y2="15.9998">
	<stop  offset="0" style="stop-color:#05F5FF"/>
	<stop  offset="1" style="stop-color:#6EFF91"/>
</linearGradient>
<path class="st1" d="M16.9,22h2V10h-2V22z M22.9,22h2V10h-2V22z M28.9,4H7C5.9,4,5,4.9,5,6v4H3c-1.1,0-2,0.9-2,2v8c0,1.1,0.9,2,2,2
	h2v4c0,1.1,0.9,2,2,2h21.9c1.1,0,2-0.9,2-2V6C30.9,4.9,30,4,28.9,4z M28.9,25c0,0.6-0.4,1-1,1H8c-0.6,0-1-0.4-1-1v-5H4
	c-0.6,0-1-0.4-1-1v-6c0-0.6,0.4-1,1-1h3V7c0-0.6,0.4-1,1-1h19.9c0.6,0,1,0.4,1,1V25z M11,22h2V10h-2V22z"/>
</svg>
