<?xml version="1.0" encoding="utf-8"?>
<!-- Generator: Adobe Illustrator 19.1.0, SVG Export Plug-In . SVG Version: 6.00 Build 0)  -->
<svg version="1.1" id="Ebene_1" xmlns="http://www.w3.org/2000/svg" xmlns:xlink="http://www.w3.org/1999/xlink" x="0px" y="0px"
	 viewBox="0 0 32 32" style="enable-background:new 0 0 32 32;" xml:space="preserve">
<style type="text/css">
	.st0{fill:#2E3231;}
	.st1{fill-rule:evenodd;clip-rule:evenodd;fill:#2E3231;}
</style>
<path class="st0" d="M2,28v-8H0v8c0,2.2,1.8,4,4,4h8v-2H4C2.9,30,2,29.1,2,28z M2,4c0-1.1,0.9-2,2-2h8V0H4C1.8,0,0,1.8,0,4v8h2V4z
	 M30,28c0,1.1-0.9,2-2,2h-8v2h8c2.2,0,4-1.8,4-4v-8h-2V28z M28,0h-8v2h8c1.1,0,2,0.9,2,2v8h2V4C32,1.8,30.2,0,28,0z M23.4,26h2.3
	c-0.4-0.7-1.1-1.8-2.3-3c-0.8-0.8-1.8-1.6-2.7-2.3c1.4-1.6,2.3-3.8,2.3-6.2C23,9.8,19.9,6,16,6c-3.9,0-7,3.8-7,8.5
	c0,2.5,0.9,4.7,2.3,6.2c-0.9,0.7-1.9,1.5-2.7,2.3c-1.2,1.2-1.9,2.3-2.3,3h2.3C9,25.5,9.5,25,10,24.4c0.8-0.8,1.8-1.7,2.7-2.4
	c1,0.6,2.1,1,3.2,1c1.2,0,2.3-0.4,3.2-1c0.9,0.7,1.9,1.5,2.7,2.4C22.5,25,23,25.5,23.4,26z M16,21c-2.8,0-5-2.9-5-6.5
	c0-3.6,2.2-6.5,5-6.5c2.8,0,5,2.9,5,6.5C21,18.1,18.8,21,16,21z"/>
</svg>
