<?xml version="1.0" encoding="utf-8"?>
<!-- Generator: Adobe Illustrator 19.1.0, SVG Export Plug-In . SVG Version: 6.00 Build 0)  -->
<svg version="1.1" id="Ebene_1" xmlns="http://www.w3.org/2000/svg" xmlns:xlink="http://www.w3.org/1999/xlink" x="0px" y="0px"
	 viewBox="0 0 32 32" style="enable-background:new 0 0 32 32;" xml:space="preserve">
<style type="text/css">
	.st0{fill:#2E3231;}
	.st1{fill-rule:evenodd;clip-rule:evenodd;fill:#2E3231;}
</style>
<path class="st1" d="M16,32c-8.3,0-15-2.2-15-5c0-2.2,4.2-4,10-4.7v1.9c-4.7,0.5-8,1.5-8,2.8c0,1.7,5.8,3,13,3c7.2,0,13-1.3,13-3
	c0-1.2-3.3-2.3-8-2.8v-1.9c5.8,0.7,10,2.5,10,4.7C31,29.8,24.3,32,16,32z M17,17.9V27c0,0.6-0.4,1-1,1c-0.6,0-1-0.4-1-1v-9.1
	c-4.5-0.5-8-4.3-8-8.9c0-5,4-9,9-9c5,0,9,4,9,9C25,13.6,21.5,17.4,17,17.9z M16,2c-3.9,0-7,3.1-7,7c0,3.9,3.1,7,7,7c3.9,0,7-3.1,7-7
	C23,5.1,19.9,2,16,2z"/>
</svg>
