<?xml version="1.0" encoding="utf-8"?>
<!-- Generator: Adobe Illustrator 19.1.0, SVG Export Plug-In . SVG Version: 6.00 Build 0)  -->
<svg version="1.1" id="Ebene_1" xmlns="http://www.w3.org/2000/svg" xmlns:xlink="http://www.w3.org/1999/xlink" x="0px" y="0px"
	 viewBox="0 0 32 32" style="enable-background:new 0 0 32 32;" xml:space="preserve">
<style type="text/css">
	.st0{fill:#2E3231;}
	.st1{fill:url(#SVGID_1_);}
	.st2{fill:url(#SVGID_2_);}
	.st3{fill:url(#SVGID_3_);}
	.st4{fill:url(#SVGID_4_);}
	.st5{fill:url(#SVGID_5_);}
	.st6{fill-rule:evenodd;clip-rule:evenodd;fill:url(#SVGID_6_);}
	.st7{fill-rule:evenodd;clip-rule:evenodd;fill:url(#SVGID_7_);}
	.st8{fill-rule:evenodd;clip-rule:evenodd;fill:url(#SVGID_8_);}
	.st9{fill-rule:evenodd;clip-rule:evenodd;fill:url(#SVGID_9_);}
	.st10{fill:url(#SVGID_10_);}
	.st11{fill-rule:evenodd;clip-rule:evenodd;fill:url(#SVGID_11_);}
	.st12{fill-rule:evenodd;clip-rule:evenodd;fill:url(#SVGID_12_);}
	.st13{fill:url(#SVGID_13_);}
	.st14{fill:url(#SVGID_14_);}
	.st15{fill:url(#SVGID_15_);}
	.st16{fill-rule:evenodd;clip-rule:evenodd;fill:url(#SVGID_16_);}
	.st17{fill-rule:evenodd;clip-rule:evenodd;fill:url(#SVGID_17_);}
	.st18{fill-rule:evenodd;clip-rule:evenodd;fill:url(#SVGID_18_);}
	.st19{fill:url(#SVGID_19_);}
	.st20{fill-rule:evenodd;clip-rule:evenodd;fill:url(#SVGID_20_);}
	.st21{fill-rule:evenodd;clip-rule:evenodd;fill:url(#SVGID_21_);}
	.st22{fill-rule:evenodd;clip-rule:evenodd;fill:#2E3231;}
	.st23{fill:url(#SVGID_22_);}
	.st24{fill-rule:evenodd;clip-rule:evenodd;fill:url(#SVGID_23_);}
	.st25{fill:url(#SVGID_24_);}
</style>
<g>
	<g>
		<linearGradient id="SVGID_1_" gradientUnits="userSpaceOnUse" x1="-1.908120e-09" y1="15.9995" x2="32" y2="15.9995">
			<stop  offset="0" style="stop-color:#05F5FF"/>
			<stop  offset="1" style="stop-color:#6EFF91"/>
		</linearGradient>
		<path class="st1" d="M6.5,5.4L5.1,4C4.9,4.2,4.6,4.4,4.4,4.6c-5.9,5.9-5.9,15.4,0,21.2c0.2,0.2,0.5,0.5,0.7,0.7l1.4-1.4
			c-0.1-0.1-0.3-0.2-0.4-0.3C0.9,19.5,0.9,11,6.2,5.7C6.3,5.6,6.4,5.5,6.5,5.4z M22.1,12.5c0.7-1.3,1.2-2.8,1.2-4.5c0-4.4-3.1-8-7-8
			c-3.9,0-7,3.6-7,8c0,1.6,0.4,3.2,1.2,4.5c-1.3,0.7-2.2,2-2.2,3.5l3,12c0,0,1.8,4,4,4h2c2.2,0,4-4,4-4l3-12
			C24.3,14.4,23.4,13.1,22.1,12.5z M16.3,2c2.8,0,5,2.7,5,6c0,3.3-2.2,6-5,6c-2.8,0-5-2.7-5-6C11.3,4.7,13.6,2,16.3,2z M19.3,28
			c-0.7,1.2-0.9,2-2,2h-2c-1.1,0-1.4-0.6-2-2l-3-12c0-0.9,0.7-1.7,1.5-1.9c1.2,1.2,2.8,1.9,4.5,1.9c1.7,0,3.3-0.7,4.5-1.9
			c0.9,0.2,1.5,1,1.5,1.9L19.3,28z M27.6,4.6c-0.2-0.2-0.5-0.5-0.7-0.7l-1.4,1.4c0.1,0.1,0.3,0.2,0.4,0.3c5.3,5.3,5.3,13.8,0,19.1
			c-0.1,0.1-0.2,0.2-0.4,0.3l1.4,1.4c0.3-0.2,0.5-0.4,0.7-0.7C33.5,20,33.5,10.5,27.6,4.6z"/>
	</g>
</g>
</svg>
