<?xml version="1.0" encoding="utf-8"?>
<!-- Generator: Adobe Illustrator 19.1.0, SVG Export Plug-In . SVG Version: 6.00 Build 0)  -->
<svg version="1.1" id="Ebene_1" xmlns="http://www.w3.org/2000/svg" xmlns:xlink="http://www.w3.org/1999/xlink" x="0px" y="0px"
	 viewBox="0 0 32 32" style="enable-background:new 0 0 32 32;" xml:space="preserve">
<style type="text/css">
	.st0{fill:#2E3231;}
	.st1{fill-rule:evenodd;clip-rule:evenodd;fill:#2E3231;}
</style>
<path class="st1" d="M27.6,15.9c0.2,1,0.3,2.1,0.3,3.2c0,7.8-5.4,12-12,12C9.3,31,4,26.8,4,19c0-1.1,0.1-2.2,0.3-3.2
	C0.1,7.8,2.9,1,2.9,1c2.9,1.4,5,4.5,6.1,6.6C11,6,13.4,5,15.9,5l0,0l0,0c0,0,0,0,0,0c2.6,0,5,1,6.9,2.6C24,5.6,26.1,2.4,29.1,1
	C29.1,1,31.8,7.8,27.6,15.9z M4,4.1c-0.3,2-0.4,5.3,1.1,9c0.6-1.6,1.5-3,2.5-4.2C6.9,7.6,5.7,5.6,4,4.1z M18.1,7.3
	C17,8.2,16,9.4,16,11c0-1.6-1.1-2.8-2.1-3.7C9.3,8.5,6,13.3,6,19c0,0.4,0,0.7,0.1,1c1.2,0.4,2.7,0.7,3.9,0c-1.8,1.1-2.2,3.8-2.2,5.2
	C9.5,27.7,12.6,29,16,29c3.4,0,6.4-1.3,8.2-3.8c-0.1-1.4-0.4-4.1-2.2-5.2c1.2,0.7,2.7,0.5,3.9,0.1c0-0.3,0.1-0.7,0.1-1
	C26,13.3,22.6,8.4,18.1,7.3z M28,4.1C26.3,5.6,25,7.6,24.3,9c1.1,1.2,1.9,2.6,2.5,4.2C28.4,9.4,28.3,6.2,28,4.1z M16.2,26
	c-2.6,0-3.9-4-3.9-4s2-1,3.9-1c2,0,3.9,1,3.9,1S18.8,26,16.2,26z"/>
</svg>
